<svg width="21" height="22" viewBox="0 0 21 22" fill="none" xmlns="http://www.w3.org/2000/svg">
<path d="M19.7189 4H16.294V1.8125C16.294 0.847266 15.5261 0.0625 14.5816 0.0625H6.01941C5.07489 0.0625 4.30697 0.847266 4.30697 1.8125V4H0.882097C0.408502 4 0.0258789 4.39102 0.0258789 4.875V5.75C0.0258789 5.87031 0.122203 5.96875 0.239934 5.96875H1.85605L2.51694 20.2695C2.55975 21.202 3.31429 21.9375 4.2267 21.9375H16.3743C17.2894 21.9375 18.0413 21.2047 18.0841 20.2695L18.745 5.96875H20.3611C20.4788 5.96875 20.5751 5.87031 20.5751 5.75V4.875C20.5751 4.39102 20.1925 4 19.7189 4ZM14.3675 4H6.23346V2.03125H14.3675V4Z" fill="#B88E2F"/>
</svg>
